<svg width="20" height="16" viewBox="0 0 20 16" fill="none" xmlns="http://www.w3.org/2000/svg">
<path d="M13.4875 14.0824L11.47 12.0636C10.6898 12.3426 9.84643 12.3942 9.03802 12.2126C8.22962 12.031 7.48941 11.6235 6.90352 11.0376C6.31764 10.4517 5.91018 9.71152 5.72854 8.90311C5.5469 8.0947 5.59856 7.25133 5.8775 6.47113L3.3025 3.89613C1.1725 5.78988 0 7.94238 0 7.94238C0 7.94238 3.75 14.8174 10 14.8174C11.2005 14.8132 12.3874 14.5631 13.4875 14.0824ZM6.5125 1.80238C7.61257 1.32166 8.79949 1.07152 10 1.06738C16.25 1.06738 20 7.94238 20 7.94238C20 7.94238 18.8263 10.0936 16.6987 11.9899L14.1213 9.41238C14.4002 8.63218 14.4519 7.78882 14.2702 6.98041C14.0886 6.172 13.6811 5.43179 13.0952 4.84591C12.5093 4.26002 11.7691 3.85256 10.9607 3.67092C10.1523 3.48928 9.30895 3.54094 8.52875 3.81988L6.5125 1.80363V1.80238Z" fill="#8C99B2"/>
<path d="M6.90604 7.49995C6.83728 7.98033 6.88135 8.47013 7.03474 8.93053C7.18814 9.39094 7.44666 9.80929 7.7898 10.1524C8.13295 10.4956 8.5513 10.7541 9.0117 10.9075C9.4721 11.0609 9.9619 11.105 10.4423 11.0362L6.90479 7.49995H6.90604ZM13.0935 8.38495L9.55729 4.84745C10.0377 4.77869 10.5275 4.82275 10.9879 4.97615C11.4483 5.12955 11.8666 5.38806 12.2098 5.73121C12.5529 6.07436 12.8114 6.49271 12.9648 6.95311C13.1182 7.41351 13.1623 7.90331 13.0935 8.3837V8.38495Z" fill="#8C99B2"/>
<path fill-rule="evenodd" clip-rule="evenodd" d="M17 15.885L2 0.885L2.885 0L17.885 15L17 15.885Z" fill="#8C99B2"/>
</svg>
