<svg width="25" height="26" viewBox="0 0 25 26" fill="none" xmlns="http://www.w3.org/2000/svg">
<path fill-rule="evenodd" clip-rule="evenodd" d="M12.1394 0.533447H18.4484C21.6146 0.533447 24.1917 3.01132 24.1917 6.05823V15.5389C24.1917 16.0681 23.7439 16.4964 23.195 16.4964C22.6436 16.4964 22.197 16.0681 22.197 15.5389V6.05823C22.197 4.06971 20.5156 2.451 18.4484 2.451H12.1394C10.0645 2.451 8.37657 4.07469 8.37657 6.07068V7.22993C8.37657 7.75912 7.93129 8.18746 7.37987 8.18746C6.82974 8.18746 6.38317 7.75912 6.38317 7.22993V6.07068C6.38317 3.01755 8.96553 0.533447 12.1394 0.533447ZM14.3438 10.9429C14.1579 11.1334 13.9126 11.228 13.666 11.228C13.4244 11.228 13.1816 11.1359 12.9945 10.9504L12.0825 10.0451C11.7083 9.67283 11.7046 9.06643 12.0751 8.68915C12.4443 8.31186 13.0477 8.30937 13.4244 8.68168L14.3376 9.58815C14.7118 9.95921 14.7155 10.5669 14.3438 10.9429ZM12.0777 17.2839C11.7059 16.9078 11.7072 16.3014 12.0801 15.9279L14.0626 13.9443H1.4874C0.960801 13.9443 0.533325 13.5148 0.533325 12.9856C0.533325 12.4564 0.960801 12.0255 1.4874 12.0255H16.3735C16.7601 12.0255 17.1082 12.2596 17.2557 12.6195C17.4031 12.9781 17.3201 13.3915 17.0475 13.6654L13.427 17.2863C13.2411 17.4719 12.997 17.5653 12.7529 17.5653C12.5089 17.5653 12.2635 17.4719 12.0777 17.2839ZM23.1943 18.941C22.6442 18.941 22.1976 19.3706 22.1976 19.8998C22.1976 21.8958 20.5097 23.5195 18.4347 23.5195H12.1257C10.0598 23.5195 8.3771 21.9008 8.3771 19.9123V18.7406C8.3771 18.2114 7.93053 17.7818 7.3804 17.7818C6.83028 17.7818 6.3837 18.2114 6.3837 18.7406V19.9123C6.3837 22.9592 8.95959 25.4371 12.1257 25.4371H18.4347C21.6086 25.4371 24.191 22.953 24.191 19.8998C24.191 19.3706 23.7444 18.941 23.1943 18.941Z" fill=currentColor/>
</svg>
